<?xml version="1.0" encoding="UTF-8"?><svg xmlns="http://www.w3.org/2000/svg" xmlns:xlink="http://www.w3.org/1999/xlink" fill-opacity="1" color-rendering="auto" color-interpolation="auto" text-rendering="auto" stroke="black" stroke-linecap="square" width="675" stroke-miterlimit="10" shape-rendering="auto" stroke-opacity="1" fill="black" stroke-dasharray="none" font-weight="normal" stroke-width="1" height="696" font-family="'Dialog'" font-style="normal" stroke-linejoin="miter" font-size="12px" stroke-dashoffset="0" image-rendering="auto">
  <!--Generated by ySVG 2.5-->
  <defs id="genericDefs"/>
  <g>
    <defs id="defs1">
      <clipPath clipPathUnits="userSpaceOnUse" id="clipPath1">
        <path d="M0 0 L675 0 L675 696 L0 696 L0 0 Z"/>
      </clipPath>
      <clipPath clipPathUnits="userSpaceOnUse" id="clipPath2">
        <path d="M54 40 L729 40 L729 736 L54 736 L54 40 Z"/>
      </clipPath>
    </defs>
    <g fill="white" text-rendering="geometricPrecision" shape-rendering="geometricPrecision" transform="translate(-54,-40)" stroke="white">
      <rect x="54" width="675" height="696" y="40" clip-path="url(#clipPath2)" stroke="none"/>
    </g>
    <g fill="rgb(255,204,0)" text-rendering="geometricPrecision" shape-rendering="geometricPrecision" transform="matrix(1,0,0,1,-54,-40)" stroke="rgb(255,204,0)">
      <rect x="69" width="115" height="90" y="63" clip-path="url(#clipPath2)" stroke="none"/>
    </g>
    <g text-rendering="geometricPrecision" stroke-miterlimit="1.45" shape-rendering="geometricPrecision" font-family="sans-serif" transform="matrix(1,0,0,1,-54,-40)" stroke-linecap="butt">
      <text x="101.8291" xml:space="preserve" y="112.7139" clip-path="url(#clipPath2)" stroke="none">EVENTO</text>
      <rect fill="none" x="69" width="115" height="90" y="63" clip-path="url(#clipPath2)"/>
    </g>
    <g fill="rgb(255,204,0)" text-rendering="geometricPrecision" shape-rendering="geometricPrecision" transform="matrix(1,0,0,1,-54,-40)" stroke="rgb(255,204,0)">
      <rect x="571" width="115" height="90" y="63" clip-path="url(#clipPath2)" stroke="none"/>
    </g>
    <g text-rendering="geometricPrecision" stroke-miterlimit="1.45" shape-rendering="geometricPrecision" font-family="sans-serif" transform="matrix(1,0,0,1,-54,-40)" stroke-linecap="butt">
      <text x="580.8252" xml:space="preserve" y="112.7139" clip-path="url(#clipPath2)" stroke="none">PARTICIPANTES</text>
      <rect fill="none" x="571" width="115" height="90" y="63" clip-path="url(#clipPath2)"/>
    </g>
    <g fill="rgb(255,204,0)" text-rendering="geometricPrecision" shape-rendering="geometricPrecision" transform="matrix(1,0,0,1,-54,-40)" stroke="rgb(255,204,0)">
      <rect x="448" width="115" height="90" y="412" clip-path="url(#clipPath2)" stroke="none"/>
    </g>
    <g text-rendering="geometricPrecision" stroke-miterlimit="1.45" shape-rendering="geometricPrecision" font-family="sans-serif" transform="matrix(1,0,0,1,-54,-40)" stroke-linecap="butt">
      <text x="465.4922" xml:space="preserve" y="461.7139" clip-path="url(#clipPath2)" stroke="none">ACTIVIDADES</text>
      <rect fill="none" x="448" width="115" height="90" y="412" clip-path="url(#clipPath2)"/>
    </g>
    <g fill="rgb(255,204,0)" text-rendering="geometricPrecision" shape-rendering="geometricPrecision" transform="matrix(1,0,0,1,-54,-40)" stroke="rgb(255,204,0)">
      <rect x="270" width="115" height="90" y="622.75" clip-path="url(#clipPath2)" stroke="none"/>
    </g>
    <g text-rendering="geometricPrecision" stroke-miterlimit="1.45" shape-rendering="geometricPrecision" font-family="sans-serif" transform="matrix(1,0,0,1,-54,-40)" stroke-linecap="butt">
      <text x="278.1582" xml:space="preserve" y="672.4639" clip-path="url(#clipPath2)" stroke="none">TIPO_ACTIVIDAD</text>
      <rect fill="none" x="270" width="115" height="90" y="622.75" clip-path="url(#clipPath2)"/>
    </g>
    <g fill="rgb(255,204,0)" text-rendering="geometricPrecision" shape-rendering="geometricPrecision" transform="matrix(1,0,0,1,-54,-40)" stroke="rgb(255,204,0)">
      <rect x="92" width="115" height="90" y="412" clip-path="url(#clipPath2)" stroke="none"/>
    </g>
    <g text-rendering="geometricPrecision" stroke-miterlimit="1.45" shape-rendering="geometricPrecision" font-family="sans-serif" transform="matrix(1,0,0,1,-54,-40)" stroke-linecap="butt">
      <text x="112.1582" xml:space="preserve" y="461.7139" clip-path="url(#clipPath2)" stroke="none">ASISTENTES</text>
      <rect fill="none" x="92" width="115" height="90" y="412" clip-path="url(#clipPath2)"/>
    </g>
    <g fill="rgb(255,204,0)" text-rendering="geometricPrecision" shape-rendering="geometricPrecision" transform="matrix(1,0,0,1,-54,-40)" stroke="rgb(255,204,0)">
      <path d="M285 108 L365 55 L445 108 L365 161 Z" fill-rule="evenodd" clip-path="url(#clipPath2)" stroke="none"/>
    </g>
    <g text-rendering="geometricPrecision" stroke-miterlimit="1.45" shape-rendering="geometricPrecision" font-family="sans-serif" transform="matrix(1,0,0,1,-54,-40)" stroke-linecap="butt">
      <text x="328.3262" xml:space="preserve" y="112.7139" clip-path="url(#clipPath2)" stroke="none">PRESENTAR</text>
      <path fill="none" d="M285 108 L365 55 L445 108 L365 161 Z" clip-path="url(#clipPath2)" fill-rule="evenodd"/>
    </g>
    <g fill="rgb(255,204,0)" text-rendering="geometricPrecision" shape-rendering="geometricPrecision" transform="matrix(1,0,0,1,-54,-40)" stroke="rgb(255,204,0)">
      <path d="M599 457 L656.5 404 L714 457 L656.5 510 Z" fill-rule="evenodd" clip-path="url(#clipPath2)" stroke="none"/>
    </g>
    <g text-rendering="geometricPrecision" stroke-miterlimit="1.45" shape-rendering="geometricPrecision" font-family="sans-serif" transform="matrix(1,0,0,1,-54,-40)" stroke-linecap="butt">
      <text x="627.1592" xml:space="preserve" y="461.7139" clip-path="url(#clipPath2)" stroke="none">REALIZAR</text>
      <path fill="none" d="M599 457 L656.5 404 L714 457 L656.5 510 Z" clip-path="url(#clipPath2)" fill-rule="evenodd"/>
    </g>
    <g fill="rgb(255,204,0)" text-rendering="geometricPrecision" shape-rendering="geometricPrecision" transform="matrix(1,0,0,1,-54,-40)" stroke="rgb(255,204,0)">
      <path d="M434 667.75 L514 614.75 L594 667.75 L514 720.75 Z" fill-rule="evenodd" clip-path="url(#clipPath2)" stroke="none"/>
    </g>
    <g text-rendering="geometricPrecision" stroke-miterlimit="1.45" shape-rendering="geometricPrecision" font-family="sans-serif" transform="matrix(1,0,0,1,-54,-40)" stroke-linecap="butt">
      <text x="484.9932" xml:space="preserve" y="672.4639" clip-path="url(#clipPath2)" stroke="none">ABARCAN</text>
      <path fill="none" d="M434 667.75 L514 614.75 L594 667.75 L514 720.75 Z" clip-path="url(#clipPath2)" fill-rule="evenodd"/>
    </g>
    <g fill="rgb(255,204,0)" text-rendering="geometricPrecision" shape-rendering="geometricPrecision" transform="matrix(1,0,0,1,-54,-40)" stroke="rgb(255,204,0)">
      <path d="M247.5 457 L327.5 404 L407.5 457 L327.5 510 Z" fill-rule="evenodd" clip-path="url(#clipPath2)" stroke="none"/>
    </g>
    <g text-rendering="geometricPrecision" stroke-miterlimit="1.45" shape-rendering="geometricPrecision" font-family="sans-serif" transform="matrix(1,0,0,1,-54,-40)" stroke-linecap="butt">
      <text x="304.1621" xml:space="preserve" y="461.7139" clip-path="url(#clipPath2)" stroke="none">ASISTIR</text>
      <path fill="none" d="M247.5 457 L327.5 404 L407.5 457 L327.5 510 Z" clip-path="url(#clipPath2)" fill-rule="evenodd"/>
    </g>
    <g fill="rgb(255,204,0)" text-rendering="geometricPrecision" shape-rendering="geometricPrecision" transform="matrix(1,0,0,1,-54,-40)" stroke="rgb(255,204,0)">
      <path d="M233 282.5 L313 229.5 L393 282.5 L313 335.5 Z" fill-rule="evenodd" clip-path="url(#clipPath2)" stroke="none"/>
    </g>
    <g text-rendering="geometricPrecision" stroke-miterlimit="1.45" shape-rendering="geometricPrecision" font-family="sans-serif" transform="matrix(1,0,0,1,-54,-40)" stroke-linecap="butt">
      <text x="276.3262" xml:space="preserve" y="287.2139" clip-path="url(#clipPath2)" stroke="none">PERTENECE</text>
      <path fill="none" d="M233 282.5 L313 229.5 L393 282.5 L313 335.5 Z" clip-path="url(#clipPath2)" fill-rule="evenodd"/>
      <path fill="none" d="M571 108 L445.0232 108" clip-path="url(#clipPath2)"/>
      <text x="503.667" xml:space="preserve" y="82.7139" clip-path="url(#clipPath2)" stroke="none">N</text>
      <path fill="none" d="M285.0245 108 L184 108" clip-path="url(#clipPath2)"/>
      <text x="231.1631" xml:space="preserve" y="82.7139" clip-path="url(#clipPath2)" stroke="none">1</text>
      <path fill="none" d="M632.1103 153 L652.5432 407.6816" clip-path="url(#clipPath2)"/>
      <text x="608.7458" xml:space="preserve" y="283.2139" clip-path="url(#clipPath2)" stroke="none">1</text>
      <path fill="none" d="M563 457 L599.0212 457" clip-path="url(#clipPath2)"/>
      <text x="576.667" xml:space="preserve" y="491.7139" clip-path="url(#clipPath2)" stroke="none">N</text>
      <path fill="none" d="M507.3149 502 L511.9191 616.1555" clip-path="url(#clipPath2)"/>
      <text x="476.2274" xml:space="preserve" y="563.0889" clip-path="url(#clipPath2)" stroke="none">1</text>
      <path fill="none" d="M385 667.75 L433.9734 667.75" clip-path="url(#clipPath2)"/>
      <text x="406.1631" xml:space="preserve" y="702.4639" clip-path="url(#clipPath2)" stroke="none">1</text>
      <path fill="none" d="M448 457 L407.4901 457" clip-path="url(#clipPath2)"/>
      <text x="423.417" xml:space="preserve" y="431.7139" clip-path="url(#clipPath2)" stroke="none">N</text>
      <path fill="none" d="M207 457 L247.5099 457" clip-path="url(#clipPath2)"/>
      <text x="223.9131" xml:space="preserve" y="491.7139" clip-path="url(#clipPath2)" stroke="none">1</text>
      <path fill="none" d="M174.5946 153 L279.8516 251.4845" clip-path="url(#clipPath2)"/>
      <text x="185.0435" xml:space="preserve" y="211.6969" clip-path="url(#clipPath2)" stroke="none">1</text>
      <path fill="none" d="M346.7674 313.1099 L455.8582 412" clip-path="url(#clipPath2)"/>
      <text x="389.181" xml:space="preserve" y="400.6908" clip-path="url(#clipPath2)" stroke="none">N</text>
    </g>
  </g>
</svg>
